<?xml version="1.0" standalone="no"?>
<!DOCTYPE svg PUBLIC "-//W3C//DTD SVG 1.1//EN" "http://www.w3.org/Graphics/SVG/1.1/DTD/svg11.dtd" >
<svg xmlns="http://www.w3.org/2000/svg" xmlns:xlink="http://www.w3.org/1999/xlink" version="1.1">
<metadata></metadata>
<defs>
<font id="dm_sansitalic" horiz-adv-x="1173" >
<font-face units-per-em="2048" ascent="1638" descent="-410" />
<missing-glyph horiz-adv-x="585" />
<glyph unicode="&#xfb01;" horiz-adv-x="1163" d="M106 0l154 870h-151l24 146h152l30 176q27 147 113 215t229 68h101l-27 -148h-74q-78 0 -116.5 -31.5t-53.5 -107.5l-28 -172h631l-181 -1016h-172l154 870h-459l-153 -870h-173zM946 1358q0 51 35 84t84 33q51 0 85 -33t34 -84q0 -49 -34 -83t-85 -34q-49 0 -84 34 t-35 83z" />
<glyph unicode="&#xfb02;" horiz-adv-x="1140" d="M106 0l154 870h-151l24 146h152l30 176q27 147 113 215t229 68h101l-27 -148h-74q-78 0 -116.5 -31.5t-53.5 -107.5l-30 -172h252l-27 -146h-250l-153 -870h-173zM735 0l262 1475h172l-262 -1475h-172z" />
<glyph horiz-adv-x="0" />
<glyph horiz-adv-x="682" />
<glyph unicode="&#xd;" horiz-adv-x="1228" />
<glyph unicode=" "  horiz-adv-x="585" />
<glyph unicode="&#x09;" horiz-adv-x="585" />
<glyph unicode="&#xa0;" horiz-adv-x="585" />
<glyph unicode="!" horiz-adv-x="512" d="M68 106q0 49 33.5 83t84.5 34q49 0 83 -33.5t34 -83.5q0 -49 -34 -82.5t-83 -33.5q-51 0 -84.5 33.5t-33.5 82.5zM145 397l164 1037h187l-205 -1037h-146z" />
<glyph unicode="&#x22;" horiz-adv-x="585" d="M213 1143l47 403h164l-92 -403h-119zM479 1143l47 403h164l-92 -403h-119z" />
<glyph unicode="#" horiz-adv-x="1667" d="M74 403l26 154h322l131 334h-307l26 151h340l158 404h162l-156 -404h438l158 404h164l-158 -404h283l-25 -151h-317l-131 -334h301l-29 -154h-332l-157 -403h-164l158 403h-439l-157 -403h-164l157 403h-288zM586 557h438l131 334h-438z" />
<glyph unicode="$" horiz-adv-x="1210" d="M80 348q0 18 2 40t6 42h180q-6 -29 -6 -55q0 -88 53.5 -152.5t147.5 -89.5l96 549q-29 10 -49 18q-135 49 -201.5 134.5t-66.5 193.5q0 121 56 214t158.5 148.5t239.5 65.5l29 164h141l-30 -168q147 -20 235 -109.5t88 -218.5q0 -31 -6 -63h-178q0 10 1 19.5t1 19.5 q0 66 -41 123t-127 80l-86 -492q16 -6 34.5 -12t35.5 -13q125 -47 211 -132t86 -222q0 -133 -64.5 -234.5t-180.5 -159.5t-270 -63l-26 -153h-141l28 162q-164 27 -260 123t-96 241zM424 1055q0 -74 46 -118t120 -77l80 449q-113 -16 -179.5 -85t-66.5 -169zM600 121 q150 8 227.5 87t77.5 204q0 92 -61.5 141t-151.5 84z" />
<glyph unicode="%" horiz-adv-x="1585" d="M182 1053q0 111 52.5 202t140.5 146t196 55q121 0 200 -75.5t79 -209.5q0 -111 -52.5 -201.5t-139 -146t-195.5 -55.5q-123 0 -202 77t-79 208zM195 0l1085 1434h170l-1083 -1434h-172zM326 1067q0 -86 45 -128t108 -42q61 0 112.5 36t83.5 95t32 131q0 86 -44.5 128 t-109.5 42q-61 0 -113.5 -36t-83 -95t-30.5 -131zM807 260q0 111 52 202t140 146.5t197 55.5q123 0 201 -75t78 -208q0 -111 -51.5 -203t-139.5 -147.5t-197 -55.5q-123 0 -201.5 76t-78.5 209zM952 274q0 -86 45.5 -128t108.5 -42q61 0 112.5 36t82 95.5t30.5 131.5 q0 86 -44 128t-107 42q-61 0 -113.5 -36t-83.5 -95.5t-31 -131.5z" />
<glyph unicode="&#x26;" horiz-adv-x="1505" d="M57 340q0 176 117 307t303 203q-45 59 -66.5 114.5t-21.5 114.5q0 113 55.5 198t152.5 133t220 48q143 0 228 -72.5t85 -185.5q0 -27 -6 -55h-170q2 10 2 17v18q0 68 -46 104.5t-115 36.5q-100 0 -167 -61.5t-67 -151.5q0 -55 26.5 -109.5t76.5 -117.5l374 -459 q47 57 99 129l143 190h180l-174 -241q-78 -111 -153 -195l249 -305h-215l-151 186q-123 -109 -251 -160t-273 -51q-199 0 -317 99.5t-118 265.5zM236 367q0 -106 75.5 -175t204.5 -69q217 0 408 176l-363 444q-147 -55 -236 -149t-89 -227z" />
<glyph unicode="'" horiz-adv-x="319" d="M213 1143l47 403h164l-92 -403h-119z" />
<glyph unicode="(" horiz-adv-x="763" d="M104 440q0 227 76 451.5t212 422t319 347.5h176l-2 -16q-190 -160 -326.5 -354.5t-208 -405.5t-71.5 -422q0 -217 72.5 -406.5t195.5 -337.5l-4 -16h-178q-111 127 -186 314.5t-75 422.5z" />
<glyph unicode=")" horiz-adv-x="763" d="M-61 -297l2 16q190 160 325 354.5t208 405.5t73 422q0 217 -73 406.5t-195 337.5l4 16h176q111 -127 185.5 -314.5t74.5 -422.5q0 -227 -75 -451.5t-211 -422t-318 -347.5h-176z" />
<glyph unicode="*" horiz-adv-x="978" d="M199 997l305 125l-258 123l86 121l227 -178l29 313h137l-84 -313l285 176l47 -117l-307 -127l262 -125l-86 -121l-228 177l-24 -314h-137l82 314l-287 -179z" />
<glyph unicode="+" horiz-adv-x="1196" d="M133 522l25 146h391l65 372h156l-65 -372h389l-25 -146h-391l-66 -375h-155l67 375h-391z" />
<glyph unicode="," horiz-adv-x="364" d="M-131 -244l199 453h178l-258 -453h-119z" />
<glyph unicode="-" horiz-adv-x="1052" d="M125 522l25 146h811l-25 -146h-811z" />
<glyph unicode="." horiz-adv-x="401" d="M12 106q0 49 34 83t85 34t84 -33.5t33 -83.5q0 -49 -33 -82.5t-84 -33.5t-85 33.5t-34 82.5z" />
<glyph unicode="/" horiz-adv-x="800" d="M-66 -195l824 1760h170l-826 -1760h-168z" />
<glyph unicode="0" horiz-adv-x="1427" d="M119 530q0 195 58.5 364t160.5 296t240.5 197.5t298.5 70.5q162 0 274.5 -69.5t171.5 -194.5t59 -291q0 -197 -58 -365.5t-160.5 -294.5t-240.5 -197t-298 -71q-162 0 -274.5 70t-172 193.5t-59.5 291.5zM299 551q0 -201 94 -312.5t254 -111.5q113 0 214.5 59.5t178 164 t119.5 240.5t43 292q0 201 -94 311.5t-254 110.5q-115 0 -215 -58.5t-177 -163t-120 -240.5t-43 -292z" />
<glyph unicode="1" horiz-adv-x="620" d="M180 1180l25 129l311 125h117l-254 -1434h-176l219 1241z" />
<glyph unicode="2" horiz-adv-x="1175" d="M43 0l20 121q301 211 489.5 379t277 310t88.5 273q0 57 -23 109.5t-73 85.5t-134 33q-94 0 -162.5 -42t-110.5 -112t-55 -149h-167q27 141 100.5 241.5t180 154.5t233.5 54q172 0 278.5 -96t106.5 -260q0 -150 -79 -295t-248 -306t-441 -358h690l-25 -143h-946z" />
<glyph unicode="3" horiz-adv-x="1200" d="M80 344q0 39 6 82h174q0 -14 -2 -28.5t-2 -35.5q0 -98 69.5 -167.5t204.5 -69.5q102 0 182.5 41t126.5 113.5t46 169.5q0 123 -87 187t-216 64h-107l25 146h108q152 0 246 74.5t94 203.5q0 78 -54 131.5t-163 53.5q-119 0 -203 -71t-110 -177h-174q27 117 96.5 207 t172.5 140t235 50q182 0 280 -87t98 -222q0 -82 -36.5 -158t-103 -132t-155.5 -79q100 -23 164 -104.5t64 -206.5q0 -143 -70.5 -255t-194.5 -175.5t-282 -63.5q-125 0 -222 41t-153.5 123t-56.5 205z" />
<glyph unicode="4" horiz-adv-x="1239" d="M39 307l22 133l873 994h201l-172 -975h213l-27 -152h-213l-55 -307h-170l55 307h-727zM256 459h545l139 784z" />
<glyph unicode="5" horiz-adv-x="1255" d="M109 377v10h170q2 -119 83.5 -191.5t210.5 -72.5q111 0 202 54t145.5 150.5t54.5 217.5q0 127 -75 211t-200 84q-119 0 -210 -53.5t-144 -139.5h-164l262 787h752l-27 -150h-620l-160 -436q61 59 148.5 98t199.5 39q123 0 214 -55.5t141.5 -148.5t50.5 -208 q0 -172 -79 -307t-213 -213t-298 -78q-139 0 -239.5 52.5t-154 143.5t-50.5 206z" />
<glyph unicode="6" horiz-adv-x="1280" d="M137 471q0 199 50.5 377t142.5 315t221 216t285 79q125 0 209.5 -53t124.5 -142t32 -198h-160q0 115 -61 179.5t-170 64.5q-162 0 -296 -150.5t-200 -470.5q72 100 179.5 165t248.5 65q119 0 210 -52.5t142.5 -142.5t51.5 -205q0 -113 -43 -211t-120 -173t-178 -117 t-218 -42q-166 0 -265.5 68t-142.5 180.5t-43 247.5zM324 406q0 -117 73.5 -198t202.5 -81q109 0 191.5 47t131 130t48.5 188q0 119 -73 197.5t-202 78.5q-106 0 -190 -49t-133 -132t-49 -181z" />
<glyph unicode="7" horiz-adv-x="1091" d="M174 0l797 1286h-781l27 148h963l-23 -129l-795 -1305h-188z" />
<glyph unicode="8" horiz-adv-x="1236" d="M104 340q0 102 46.5 189t128 147.5t186.5 87.5q-96 35 -148.5 108.5t-52.5 159.5q0 125 69.5 221.5t187.5 150.5t261 54q184 0 288 -91t104 -241q0 -92 -41 -163.5t-111 -121.5t-152 -77q117 -35 170.5 -119t53.5 -192q0 -145 -76 -252t-201.5 -166.5t-277.5 -59.5 q-127 0 -225.5 44t-154 125t-55.5 196zM279 360q0 -109 75.5 -171t206.5 -62q104 0 185 40t128.5 111.5t47.5 167.5q0 119 -77 177.5t-196 58.5q-102 0 -186 -40t-134 -112.5t-50 -169.5zM440 1034q0 -106 72 -157.5t178 -51.5q74 0 144.5 30t116.5 92.5t46 158.5 q0 80 -33.5 124t-88 62.5t-117.5 18.5q-135 0 -226.5 -76t-91.5 -201z" />
<glyph unicode="9" horiz-adv-x="1280" d="M152 369h159q0 -115 62.5 -179.5t169.5 -64.5q162 0 296 150.5t199 469.5q-72 -100 -179 -164.5t-247 -64.5q-121 0 -212 52.5t-142 142.5t-51 204q0 113 43 211.5t119.5 173t179 116.5t219.5 42q166 0 264 -67.5t142.5 -180t44.5 -247.5q0 -199 -50.5 -377 t-143.5 -315.5t-221 -216.5t-284 -79q-127 0 -211 53.5t-124 142.5t-33 198zM385 942q0 -119 72.5 -197.5t199.5 -78.5q106 0 191.5 49t134.5 132t49 181q0 117 -74.5 198t-203.5 81q-109 0 -192 -47.5t-130 -130t-47 -187.5z" />
<glyph unicode=":" horiz-adv-x="407" d="M12 106q0 49 34 83t85 34t84 -33.5t33 -83.5q0 -49 -33 -82.5t-84 -33.5t-85 33.5t-34 82.5zM155 923q0 49 34 83t85 34t84 -33.5t33 -83.5q0 -49 -33 -82.5t-84 -33.5t-85 33.5t-34 82.5z" />
<glyph unicode=";" horiz-adv-x="460" d="M-94 -244l199 453h178l-258 -453h-119zM209 921q0 49 34 83t85 34t84 -33.5t33 -83.5q0 -49 -33 -82.5t-84 -33.5t-85 33.5t-34 82.5z" />
<glyph unicode="&#x3c;" horiz-adv-x="1024" d="M205 752l586 473h215l-586 -473l420 -471h-217z" />
<glyph unicode="=" horiz-adv-x="1077" d="M96 309l25 148h817l-27 -148h-815zM172 735l25 148h815l-25 -148h-815z" />
<glyph unicode="&#x3e;" horiz-adv-x="1019" d="M104 281l586 471l-420 473h217l416 -473l-584 -471h-215z" />
<glyph unicode="?" horiz-adv-x="1056" d="M152 1049q20 123 92.5 215t182.5 143t243 51q176 0 281.5 -96t105.5 -260q0 -158 -75 -267.5t-207 -166t-302 -56.5l-45 -211h-147l51 330h59q145 0 257 33t176.5 110.5t64.5 210.5q0 102 -65.5 165t-178.5 63q-131 0 -220 -72t-112 -192h-161zM195 106q0 49 33.5 83 t84.5 34t84 -33.5t33 -83.5q0 -49 -33 -82.5t-84 -33.5t-84.5 33.5t-33.5 82.5z" />
<glyph unicode="@" horiz-adv-x="2062" d="M139 279q0 217 76 405t213 328.5t324.5 219.5t408.5 79q229 0 396 -87t258.5 -242t91.5 -359q0 -117 -29 -230.5t-85 -205t-137 -145.5t-188 -54q-102 0 -156.5 54t-60.5 142q-61 -92 -159.5 -144t-206.5 -52q-156 0 -243 94t-87 254q0 113 36 216t101.5 184t156.5 128 t202 47q205 0 266 -166l26 144h148l-102 -586q-14 -88 8 -142.5t98 -54.5q68 0 119 46.5t85 123t51 165.5t17 173q0 178 -74.5 307.5t-215 199t-334.5 69.5q-186 0 -344 -69.5t-274.5 -192.5t-181 -285t-64.5 -350q0 -276 166.5 -427t455.5 -151q88 0 176 17.5t166 52.5 l25 -117q-90 -39 -192 -57.5t-206 -18.5q-219 0 -383.5 84t-256 238t-91.5 365zM713 362q0 -111 57 -177t168 -66q86 0 159.5 47t121 130t57.5 191q14 121 -41 207t-182 86q-104 0 -180 -60.5t-118 -156.5t-42 -201z" />
<glyph unicode="A" horiz-adv-x="1359" d="M-29 0l783 1434h182l272 -1434h-178l-67 369h-611l-196 -369h-185zM424 504h514l-131 725z" />
<glyph unicode="B" horiz-adv-x="1247" d="M63 0l252 1434h506q199 0 294 -88.5t95 -217.5q0 -150 -88 -251t-229 -138q102 -20 165.5 -97t63.5 -187q0 -135 -72.5 -237.5t-195.5 -160t-270 -57.5h-521zM260 139h330q162 0 262 88t100 230q0 98 -73.5 155.5t-200.5 57.5h-326zM379 805h317q150 0 242 81t92 214 q0 90 -62.5 143t-191.5 53h-313z" />
<glyph unicode="C" horiz-adv-x="1478" d="M121 549q0 193 62.5 358.5t175 289.5t263 192.5t326.5 68.5q246 0 381 -117.5t141 -328.5h-194q-4 137 -92 216t-260 79q-133 0 -247 -56.5t-198 -158t-131 -236.5t-47 -293q0 -207 110.5 -321.5t307.5 -114.5q172 0 285.5 78t166.5 211h195q-80 -209 -254 -325 t-418 -116q-182 0 -310 72t-195.5 201t-67.5 301z" />
<glyph unicode="D" horiz-adv-x="1435" d="M63 0l252 1434h441q324 0 476 -150.5t152 -429.5q0 -252 -108.5 -444.5t-306 -301t-465.5 -108.5h-441zM260 143h266q213 0 365.5 86t233.5 243t81 370q0 219 -111.5 333.5t-367.5 114.5h-264z" />
<glyph unicode="E" horiz-adv-x="1110" d="M63 0l252 1434h830l-27 -138h-655l-88 -505h594l-23 -136h-596l-90 -518h655l-24 -137h-828z" />
<glyph unicode="F" horiz-adv-x="1085" d="M63 0l252 1434h852l-24 -138h-680l-88 -510h571l-24 -133h-572l-114 -653h-173z" />
<glyph unicode="G" horiz-adv-x="1558" d="M125 571q0 193 61.5 356t172 281.5t262 184t333.5 65.5q244 0 390.5 -116.5t156.5 -321.5h-198q-6 129 -100.5 204.5t-266.5 75.5q-188 0 -330.5 -92t-221.5 -253.5t-79 -372.5q0 -207 109.5 -330t300.5 -123q229 0 369.5 134t197.5 368h-414l23 135h592l-135 -766h-158 l27 236q-100 -125 -223.5 -193t-311.5 -68q-174 0 -298 77t-191.5 212t-67.5 307z" />
<glyph unicode="H" horiz-adv-x="1392" d="M63 0l252 1434h172l-112 -635h745l113 635h172l-254 -1434h-172l119 664h-746l-116 -664h-173z" />
<glyph unicode="I" horiz-adv-x="477" d="M63 0l252 1434h172l-251 -1434h-173z" />
<glyph unicode="J" horiz-adv-x="995" d="M39 381h174q-6 -33 -6 -63q0 -65 27 -115q38 -74 157 -74q115 0 176.5 68.5t77.5 154.5l189 1082h172l-189 -1082q-31 -172 -153.5 -274.5t-298.5 -102.5q-180 0 -269 107q-66 79 -66 202q0 46 9 97z" />
<glyph unicode="K" horiz-adv-x="1206" d="M63 0l252 1434h172l-112 -650l710 650h218l-633 -572l389 -862h-199l-330 737l-196 -178l-98 -559h-173z" />
<glyph unicode="L" horiz-adv-x="1077" d="M63 0l252 1434h172l-227 -1297h668l-25 -137h-840z" />
<glyph unicode="M" horiz-adv-x="1736" d="M63 0l252 1434h201l340 -1000l688 1000h203l-252 -1434h-172l197 1126l-639 -921h-129l-318 919l-198 -1124h-173z" />
<glyph unicode="N" horiz-adv-x="1413" d="M63 0l252 1434h170l564 -1162l202 1162h172l-252 -1434h-172l-559 1161l-204 -1161h-173z" />
<glyph unicode="O" horiz-adv-x="1628" d="M125 586q0 182 66.5 339.5t184.5 277.5t273.5 187.5t329.5 67.5q178 0 312 -77.5t210 -215t76 -315.5q0 -182 -66.5 -341t-185.5 -278.5t-273.5 -187.5t-328.5 -68q-178 0 -313.5 79t-210 217.5t-74.5 314.5zM303 596q0 -143 56.5 -248.5t157 -163t231.5 -57.5 q133 0 251.5 55.5t207.5 152.5t140.5 227t51.5 280q0 143 -56.5 246.5t-157 160t-231.5 56.5q-135 0 -252.5 -54.5t-208 -152t-140.5 -225.5t-50 -277z" />
<glyph unicode="P" horiz-adv-x="1193" d="M63 0l252 1434h471q147 0 241.5 -49.5t139.5 -131.5t45 -178q0 -152 -72.5 -258t-200.5 -162.5t-298 -56.5h-299l-106 -598h-173zM367 743h295q176 0 273 79t97 241q0 98 -64.5 162.5t-209.5 64.5h-295z" />
<glyph unicode="Q" horiz-adv-x="1615" d="M125 586q0 182 66.5 339.5t184.5 277.5t273.5 187.5t329.5 67.5q178 0 312 -77.5t210 -215t76 -315.5q0 -172 -60.5 -324.5t-169 -271.5t-249.5 -191l295 -339h-226l-235 278q-103 -27 -209 -27q-178 0 -313.5 79t-210 217.5t-74.5 314.5zM303 596q0 -143 56.5 -248.5 t157 -163t231.5 -57.5q133 0 251.5 55.5t207.5 152.5t140.5 227t51.5 280q0 143 -56.5 246.5t-157 160t-231.5 56.5q-135 0 -252.5 -54.5t-208 -152t-140.5 -225.5t-50 -277z" />
<glyph unicode="R" horiz-adv-x="1216" d="M63 0l252 1434h461q147 0 239.5 -50.5t135.5 -132.5t43 -178q0 -176 -101.5 -295t-271.5 -162l203 -616h-186l-187 592h-28h-283l-104 -592h-173zM365 727h278q170 0 272.5 85t102.5 245q0 96 -65.5 163.5t-213.5 67.5h-276z" />
<glyph unicode="S" horiz-adv-x="1210" d="M80 348q0 18 2 40t6 42h180q-6 -29 -6 -55q0 -111 83 -182.5t224 -71.5q164 0 250 80t86 211q0 68 -33.5 111.5t-91 73.5t-128 53.5t-142.5 49.5q-135 49 -201.5 134.5t-66.5 193.5q0 129 63.5 225.5t178 150.5t266.5 54q121 0 214 -42t144 -117.5t51 -174.5 q0 -31 -6 -63h-178q0 10 1 19.5t1 19.5q0 80 -62.5 145.5t-189.5 65.5q-135 0 -218 -73t-83 -183q0 -78 50 -124t134 -77t185 -68q125 -47 211 -132t86 -222t-68 -239.5t-188.5 -160t-282.5 -57.5q-141 0 -246.5 46.5t-165 130.5t-59.5 196z" />
<glyph unicode="T" horiz-adv-x="1144" d="M199 1296l24 138h1026l-24 -138h-428l-228 -1296h-172l228 1296h-426z" />
<glyph unicode="U" horiz-adv-x="1366" d="M129 389q0 66 12 139l162 906h172l-162 -906q-12 -61 -12 -112q0 -150 83 -217.5t220 -67.5q160 0 275.5 94t152.5 303l162 906h172l-160 -906q-33 -190 -126 -313t-225.5 -181.5t-279.5 -58.5q-129 0 -229 44t-158.5 136.5t-58.5 233.5z" />
<glyph unicode="V" horiz-adv-x="1370" d="M209 1434h186l232 -1246l676 1246h186l-795 -1434h-200z" />
<glyph unicode="W" horiz-adv-x="1982" d="M205 1434h186l92 -1221l568 1221h192l123 -1223l528 1223h187l-656 -1434h-196l-133 1180l-557 -1180l-195 -2z" />
<glyph unicode="X" horiz-adv-x="1216" d="M-39 0l561 721l-313 713h197l251 -572l437 572h196l-569 -719l315 -715h-196l-252 573l-434 -573h-193z" />
<glyph unicode="Y" horiz-adv-x="1185" d="M190 1434h197l229 -725l488 725h192l-622 -889l-96 -545h-172l96 545z" />
<glyph unicode="Z" horiz-adv-x="1095" d="M-12 0l24 135l908 1149h-697l29 150h895l-23 -136l-911 -1148h717l-27 -150h-915z" />
<glyph unicode="[" horiz-adv-x="630" d="M8 -309l348 1970h357l-27 -141h-194l-297 -1686h194l-24 -143h-357z" />
<glyph unicode="\" horiz-adv-x="800" d="M244 1565h170l202 -1760h-167z" />
<glyph unicode="]" horiz-adv-x="630" d="M-23 -309l25 141h197l297 1686h-195l25 143h356l-348 -1970h-357z" />
<glyph unicode="^" horiz-adv-x="1269" d="M35 365l670 1069h159l291 -1069h-176l-229 858l-539 -858h-176z" />
<glyph unicode="_" horiz-adv-x="1312" d="M-10 -236l26 162h1074l-27 -162h-1073z" />
<glyph unicode="`" horiz-adv-x="520" d="M193 1339l24 150l385 -260l-22 -129z" />
<glyph unicode="a" horiz-adv-x="1103" d="M53 248q0 113 63.5 194.5t177.5 125.5t265 44h272l3 13q6 35 6 69q0 98 -56.5 149.5t-156.5 51.5q-98 0 -182.5 -50t-116.5 -147h-178q33 111 107.5 187t177 115.5t214.5 39.5q182 0 273.5 -86t91.5 -233q0 -23 -2 -47.5t-6 -48.5l-109 -625h-156l21 180 q-57 -86 -150.5 -145.5t-230.5 -59.5q-115 0 -186.5 38t-106.5 100.5t-35 134.5zM238 268q0 -70 50 -108.5t144 -38.5q98 0 177 51t130.5 133t67.5 172v2h-258q-145 0 -228 -56t-83 -155z" />
<glyph unicode="b" horiz-adv-x="1267" d="M51 0l260 1475h172l-108 -617q61 72 154.5 127t232.5 55q131 0 224 -57t143.5 -155.5t50.5 -223.5q0 -178 -77 -320.5t-210 -225.5t-299 -83q-84 0 -152.5 29t-117 74t-70.5 94l-47 -172h-156zM311 428q0 -137 79 -220t212 -83q117 0 207 59.5t141 162t51 233.5 q0 135 -76.5 223t-207.5 88q-117 0 -209 -61.5t-144.5 -167t-52.5 -234.5z" />
<glyph unicode="c" horiz-adv-x="1165" d="M88 408q0 135 47 250.5t131 201.5t194.5 133t237.5 47q184 0 293 -96t111 -260h-176q0 104 -74 156.5t-178 52.5q-113 0 -205 -60.5t-147.5 -166t-55.5 -240.5q0 -145 80 -225t193 -80q104 0 195 53t130 158h176q-39 -104 -116.5 -185t-183 -126.5t-228.5 -45.5 q-125 0 -221 54.5t-149.5 152t-53.5 226.5z" />
<glyph unicode="d" horiz-adv-x="1269" d="M90 424q0 180 77 318.5t208 218t293 79.5q135 0 221 -53t127 -141l110 629h172l-260 -1475h-157l14 168q-59 -74 -153.5 -133.5t-235.5 -59.5q-131 0 -224.5 60.5t-142.5 163t-49 225.5zM268 440q0 -135 77 -225t210 -90q117 0 208 63.5t143 171t52 236.5 q0 133 -75.5 214t-208.5 81q-117 0 -209 -59.5t-144.5 -161t-52.5 -230.5z" />
<glyph unicode="e" horiz-adv-x="1163" d="M88 406q0 176 78 320t214 229t310 85q133 0 224.5 -52t137.5 -140t46 -195q0 -41 -9.5 -93t-17.5 -91h-811q-4 -35 -4 -61q0 -145 82 -216t192 -71q106 0 187.5 50t126.5 132h170q-63 -141 -196.5 -234.5t-313.5 -93.5q-188 0 -302 117t-114 314zM287 602h639 q2 12 3 23.5t1 21.5q0 117 -71.5 182.5t-190.5 65.5q-123 0 -231.5 -75t-149.5 -218z" />
<glyph unicode="f" horiz-adv-x="684" d="M106 0l154 870h-151l24 146h152l30 176q27 147 113 215t229 68h101l-27 -148h-74q-78 0 -116.5 -31.5t-53.5 -107.5l-30 -172h252l-27 -146h-250l-153 -870h-173z" />
<glyph unicode="g" horiz-adv-x="1126" d="M-55 -186q0 96 52 175t153 140q-72 33 -117 82l8 49l190 152q-79 77 -79 197q0 124 63.5 221.5t171 153.5t240.5 56q88 0 155 -24h375l-24 -127l-191 -8q29 -59 29 -133q0 -121 -62.5 -218.5t-169 -154t-239.5 -56.5q-90 0 -160 25l-100 -78q45 -29 102 -45t168 -24 q143 -10 224 -51.5t114 -101.5t33 -126q0 -113 -65.5 -202t-182.5 -140t-268 -51q-186 0 -303 74.5t-117 214.5zM119 -154q0 -84 71.5 -132t198.5 -48q139 0 229.5 63.5t90.5 172.5q0 57 -45.5 101t-178.5 54q-111 6 -196 27q-170 -95 -170 -238zM319 631q0 -82 54.5 -126 t150.5 -44q125 0 204 74.5t79 193.5q0 80 -55.5 125t-149.5 45q-125 0 -204 -74.5t-79 -193.5z" />
<glyph unicode="h" d="M53 0l258 1475h172l-110 -633q66 92 167 145t214 53q178 0 267 -110q61 -75 61 -205q0 -60 -13 -131l-104 -594h-172l100 575q10 55 10 101q0 216 -215 217q-131 0 -235.5 -95.5t-135.5 -271.5l-92 -526h-172z" />
<glyph unicode="i" horiz-adv-x="493" d="M72 0l178 1016h172l-178 -1016h-172zM279 1358q0 51 33.5 84t84.5 33q49 0 84 -33t35 -84t-35 -84t-84 -33q-51 0 -84.5 33t-33.5 84z" />
<glyph unicode="j" horiz-adv-x="495" d="M-238 -451l27 148h78q76 0 116 31.5t52 107.5l209 1180h172l-209 -1184q-25 -147 -112 -215t-228 -68h-105zM274 1358q0 51 34 84t85 33q49 0 83 -33t34 -84t-34 -84t-83 -33q-51 0 -85 33t-34 84z" />
<glyph unicode="k" horiz-adv-x="1048" d="M51 0l262 1475h172l-157 -887l491 428h228l-547 -457l428 -559h-209l-402 535l-94 -535h-172z" />
<glyph unicode="l" horiz-adv-x="456" d="M51 0l262 1475h172l-262 -1475h-172z" />
<glyph unicode="m" horiz-adv-x="1812" d="M53 0l178 1016h154l-14 -166q59 88 147 139t191 51q113 0 194.5 -51t112.5 -155q66 96 167 151t208 55q113 0 193.5 -48t116.5 -148q20 -55 20 -126q0 -57 -13 -124l-104 -594h-172l100 575q11 58 11 105q-1 82 -33 133q-50 80 -160 80q-109 0 -203 -85t-133 -245 l-101 -563h-170l101 575q9 55 9 101q-1 85 -33 137q-50 80 -161 80q-113 0 -212 -95.5t-130 -271.5l-92 -526h-172z" />
<glyph unicode="n" d="M53 0l178 1016h156l-20 -185q66 98 168 153.5t219 55.5q152 0 239.5 -85t87.5 -242q0 -29 -3 -58.5t-9 -60.5l-104 -594h-172l100 575q4 27 7 51.5t3 47.5q0 219 -215 219q-129 0 -230.5 -90t-135.5 -258l-97 -545h-172z" />
<glyph unicode="o" horiz-adv-x="1214" d="M88 418q0 135 47 247.5t129 196.5t190.5 131t235.5 47t225.5 -55t153.5 -153.5t55 -227.5q0 -133 -46 -247.5t-129 -199.5t-191.5 -133.5t-235.5 -48.5t-225 57.5t-153.5 158t-55.5 227.5zM268 424q0 -96 38 -162.5t101.5 -102.5t137.5 -36q115 0 206 61.5t144 168 t53 239.5q0 143 -83 222t-197 79q-113 0 -203 -61.5t-143.5 -168t-53.5 -239.5z" />
<glyph unicode="p" horiz-adv-x="1269" d="M-29 -451l260 1467h160l-16 -168q63 80 156.5 136t230.5 56q131 0 225 -57t144.5 -155.5t50.5 -223.5q0 -178 -77 -320.5t-210 -225.5t-301 -83q-82 0 -150.5 29t-116.5 74t-71 94l-113 -623h-172zM311 428q0 -137 80 -220t213 -83q117 0 207 59.5t141.5 162t51.5 233.5 q0 135 -77 223t-208 88q-117 0 -209 -61.5t-145.5 -167t-53.5 -234.5z" />
<glyph unicode="q" horiz-adv-x="1271" d="M90 424q0 180 77 318.5t208 218t293 79.5q135 0 221 -53t127 -141l47 170h156l-258 -1467h-173l107 619q-59 -74 -153.5 -133.5t-235.5 -59.5q-131 0 -224.5 60.5t-142.5 163t-49 225.5zM268 440q0 -135 77 -225t210 -90q117 0 208 63.5t143 171t52 236.5 q0 133 -75.5 214t-208.5 81q-117 0 -209 -59.5t-144.5 -161t-52.5 -230.5z" />
<glyph unicode="r" horiz-adv-x="755" d="M53 0l178 1016h158l-18 -180q66 94 173 149t244 55l-30 -180h-47q-92 0 -173 -28.5t-138.5 -97t-77.5 -187.5l-97 -547h-172z" />
<glyph unicode="s" horiz-adv-x="1052" d="M55 336h174q0 -6 -1 -11q0 -79 52 -139q56 -64 189 -65q109 0 174.5 48t65.5 134q0 68 -60.5 98.5t-161.5 51.5q-76 16 -147.5 45.5t-119.5 83t-48 135.5q0 92 53.5 164.5t146.5 115.5t212 43q162 0 259 -80q90 -74 89 -209v-22h-172v11q0 69 -48 110q-52 45 -147 45 q-94 0 -154.5 -44t-60.5 -108q0 -61 58.5 -91.5t156.5 -53.5q84 -18 158 -49t120 -84t46 -139q0 -106 -57.5 -185.5t-158 -122.5t-229.5 -43q-190 -1 -296 97q-94 86 -95 226q0 19 2 38z" />
<glyph unicode="t" horiz-adv-x="757" d="M102 870l27 146h158l65 244h152l-45 -244h301l-27 -146h-299l-100 -555q-4 -33 -4 -57q0 -63 33.5 -87t109.5 -24h133l-26 -147h-160q-127 0 -196.5 50t-69.5 171q0 20 2 44t6 50l98 555h-158z" />
<glyph unicode="u" d="M92 303q0 29 2 58.5t8 60.5l107 594h172l-102 -576q-4 -27 -7.5 -51t-3.5 -47q0 -219 215 -219q129 0 231.5 90t137.5 258l96 545h172l-178 -1016h-156l21 184q-66 -98 -168 -153.5t-219 -55.5q-154 0 -241 85t-87 243z" />
<glyph unicode="v" horiz-adv-x="1085" d="M129 1016h178l174 -852l471 852h183l-582 -1016h-203z" />
<glyph unicode="w" horiz-adv-x="1525" d="M129 1016h174l74 -797l379 797h194l97 -797l356 797h172l-475 -1016h-176l-103 838l-397 -838h-174z" />
<glyph unicode="x" horiz-adv-x="1021" d="M-49 0l446 514l-260 502h178l213 -420l359 420h184l-444 -514l258 -502h-176l-213 420l-359 -420h-186z" />
<glyph unicode="y" horiz-adv-x="1136" d="M84 -451l346 549h-57l-244 918h182l203 -791l494 791h180l-924 -1467h-180z" />
<glyph unicode="z" horiz-adv-x="929" d="M-29 0l27 141l713 731h-553l26 144h750l-27 -142l-714 -731h573l-27 -143h-768z" />
<glyph unicode="{" horiz-adv-x="870" d="M195 606l24 139q135 27 200.5 110t65.5 275q0 27 -1 48.5t-1 44.5q0 215 100.5 326.5t274.5 111.5h109l-27 -148h-78q-51 0 -99 -18t-80 -76.5t-34 -177.5q0 -31 1 -62.5t-3 -70.5q0 -139 -39 -228t-103.5 -137.5t-148.5 -64.5v-4q96 -23 140.5 -82.5t44.5 -138.5 q0 -94 -31 -182.5t-60.5 -167t-29.5 -142.5q0 -74 43 -99.5t104 -25.5h78l-24 -147h-109q-123 0 -193.5 58t-70.5 175q0 88 30.5 175t62.5 169t32 160q0 61 -40 109.5t-138 70.5z" />
<glyph unicode="|" horiz-adv-x="477" d="M27 -205l297 1680h172l-297 -1680h-172z" />
<glyph unicode="}" horiz-adv-x="870" d="M-37 -311l27 147h78q51 0 99 19.5t80 77t32 176.5q2 31 1 63.5t1 69.5q2 141 39.5 229t103 136t149.5 67v4q-98 23 -141 81t-43 140q0 92 31 181t60.5 167t29.5 142q0 74 -43 99t-105 25h-77l24 148h109q123 0 193.5 -58.5t70.5 -172.5q0 -90 -32 -177.5t-62.5 -169.5 t-30.5 -157q0 -61 40 -110.5t138 -72.5l-24 -139q-135 -27 -201 -109.5t-66 -275.5v-48v-44q0 -215 -100 -326.5t-272 -111.5h-109z" />
<glyph unicode="~" horiz-adv-x="1048" d="M80 512q53 147 137 218t193 71q59 0 100 -20.5t74.5 -47t68.5 -47t78 -20.5q53 0 97 36.5t65 98.5h129q-51 -147 -137.5 -219t-192.5 -72q-59 0 -100 20.5t-74 47t-67.5 47t-79.5 20.5q-53 0 -96.5 -37t-65.5 -96h-129z" />
<glyph unicode="&#xa1;" horiz-adv-x="512" d="M39 -293l205 1036h145l-164 -1036h-186zM231 1034q0 49 34 84t83 35q51 0 85 -35t34 -84t-34 -82.5t-85 -33.5q-49 0 -83 33.5t-34 82.5z" />
<glyph unicode="&#xa2;" horiz-adv-x="1165" d="M88 408q0 166 69.5 301t188.5 220t268 105l33 195h168l-35 -195q150 -20 235 -112.5t87 -237.5h-176q0 104 -74 156.5t-178 52.5q-113 0 -205 -60.5t-147.5 -166t-55.5 -240.5q0 -145 80 -225t193 -80q104 0 195 53t130 158h176q-51 -139 -169.5 -234.5t-276.5 -115.5 l-33 -189h-166l33 189q-154 27 -247 140.5t-93 285.5z" />
<glyph unicode="&#xa3;" horiz-adv-x="1216" d="M84 0l18 100q111 104 174.5 213t63.5 254q0 33 -4 68h-236l23 121h192q-8 43 -14 86t-6 92q0 156 64.5 273.5t179 184t266.5 66.5q195 0 291 -102.5t96 -251.5q0 -16 -1 -32.5t-3 -33.5h-158q0 12 1 24.5t1 24.5q0 100 -60.5 164t-178.5 64q-160 0 -249 -105.5 t-89 -263.5q0 -49 7 -96t17 -94h395l-20 -121h-354q2 -33 2 -62q0 -131 -61.5 -238.5t-159.5 -193.5h747l-24 -141h-920z" />
<glyph unicode="&#xa4;" horiz-adv-x="1089" d="M90 266l150 127q-41 74 -41 164q0 86 29.5 157.5t80.5 125.5l-96 114l90 78l100 -121q100 57 224 58q115 0 194 -66l150 129l65 -78l-149 -125q41 -70 41 -159q0 -84 -30 -157t-81 -128l96 -119l-90 -78l-98 121q-104 -61 -225 -61q-59 0 -108.5 18.5t-88.5 48.5 l-149 -127zM362 559q0 -88 47 -133t113 -45q68 0 123 37t87 99.5t32 139.5q0 90 -49 135.5t-113 45.5q-100 0 -170 -79t-70 -200z" />
<glyph unicode="&#xa5;" horiz-adv-x="1224" d="M88 342l23 125h409l15 78l-37 106l-355 2l21 123h289l-230 658h195l229 -729l488 729h194l-461 -658h287l-20 -123l-355 -2l-73 -106l-15 -78h410l-23 -125h-409l-62 -342h-172l62 342h-410z" />
<glyph unicode="&#xa6;" horiz-adv-x="477" d="M27 -205l120 682h172l-120 -682h-172zM203 793l121 682h172l-121 -682h-172z" />
<glyph unicode="&#xa7;" horiz-adv-x="1220" d="M49 -78h178q-10 -59 11.5 -117.5t77 -95.5t149.5 -37q90 -2 159.5 34t110.5 98.5t41 140.5q0 74 -48 113.5t-131 69.5t-189 67q-127 47 -211 125.5t-84 216.5q0 100 45 185t127 155q-29 53 -29 120q0 131 64.5 235.5t179 165t264.5 60.5q135 0 233.5 -51t144.5 -141 t25 -205h-178q10 59 -11.5 117.5t-77.5 95.5t-148 37q-90 2 -160 -34t-112 -98.5t-42 -140.5q0 -74 50.5 -114.5t134.5 -69.5t186 -66q80 -29 147.5 -73.5t107.5 -109t40 -159.5q0 -100 -45 -187t-127 -153q39 -76 22 -176q-16 -119 -80.5 -210t-172 -143t-248.5 -52 q-137 0 -234.5 51t-143.5 141t-26 205zM297 563q0 -84 51 -131t138 -78.5t194 -70.5q49 -18 79.5 -32.5t65.5 -37.5q43 37 69 90t26 117q0 68 -33 109.5t-88.5 70.5t-124 51.5t-139.5 48.5q-43 14 -79 33t-65 37q-37 -31 -65.5 -84t-28.5 -123z" />
<glyph unicode="&#xa8;" horiz-adv-x="661" d="M201 1272q0 41 29.5 71.5t72.5 30.5q41 0 72 -30.5t31 -71.5q0 -43 -31 -73t-72 -30q-43 0 -72.5 30t-29.5 73zM528 1272q0 41 30 71.5t73 30.5t71.5 -30.5t28.5 -71.5q0 -43 -28.5 -73t-71.5 -30t-73 30t-30 73z" />
<glyph unicode="&#xa9;" horiz-adv-x="1626" d="M113 588q0 178 64.5 333.5t181 272.5t271 182.5t335.5 65.5q184 0 317 -77t206 -210t73 -305q0 -178 -64.5 -335t-180.5 -274.5t-270.5 -183t-334.5 -65.5q-186 0 -319.5 76.5t-206 212t-72.5 307.5zM195 594q0 -154 62 -273.5t180 -187t286 -67.5t306 59t238.5 165.5 t156 248t55.5 305.5q0 152 -61.5 270.5t-179.5 187t-286 68.5q-166 0 -305 -59.5t-240.5 -166t-156.5 -247.5t-55 -303zM383 614q0 117 40 221.5t112.5 185.5t171 127t215.5 46q152 0 252 -81t110 -232h-156q-12 92 -74.5 140t-154.5 48q-111 0 -192.5 -63.5t-125.5 -164 t-44 -214.5q0 -129 66.5 -194.5t170.5 -65.5q96 0 174 48t123 138h156q-63 -143 -192 -226t-283 -83q-158 0 -263.5 97t-105.5 273z" />
<glyph unicode="&#xaa;" horiz-adv-x="917" d="M152 1010q0 121 54 222t146 163.5t209 62.5q104 0 167 -47t79 -125l41 160h123l-125 -717h-123l14 158q-45 -76 -123 -123t-182 -47q-127 0 -203.5 81t-76.5 212zM293 1028q0 -96 55 -149.5t137 -53.5q86 0 151.5 45t102.5 119t37 158q0 96 -55 149.5t-143 53.5 q-80 0 -144.5 -44t-102.5 -118t-38 -160z" />
<glyph unicode="&#xab;" horiz-adv-x="927" d="M98 604l262 359h170l-268 -359l144 -358h-173zM463 604l262 359h170l-268 -359l141 -358h-170z" />
<glyph unicode="&#xac;" horiz-adv-x="1376" d="M135 748l25 137h1165l-76 -428h-170l51 291h-995z" />
<glyph unicode="&#xad;" horiz-adv-x="1228" d="M125 522l25 146h811l-25 -146h-811z" />
<glyph unicode="&#xae;" horiz-adv-x="1032" d="M190 1042q20 119 90 213.5t172.5 148.5t221.5 54q121 0 204 -54t118.5 -148.5t13.5 -213.5q-20 -119 -90 -213t-171.5 -147t-222.5 -53t-203.5 53t-117.5 147.5t-15 212.5zM270 1042q-27 -150 46 -245t225 -95q98 0 181 44.5t137 121t73 174.5q25 150 -49 245t-224 95 q-100 0 -181 -44t-135 -120.5t-73 -175.5zM399 825l78 441h195q68 0 102.5 -36t24.5 -100q-10 -49 -43 -82.5t-82 -46.5l84 -174l-111 -2l-78 172h-43l-28 -172h-99zM541 1077h88q27 0 46 12.5t23 38.5q4 25 -10 37.5t-41 12.5h-88z" />
<glyph unicode="&#xaf;" horiz-adv-x="802" d="M168 1212l25 129h710l-20 -129h-715z" />
<glyph unicode="&#xb0;" horiz-adv-x="712" d="M205 1182q0 84 37 146.5t99 96t134 33.5q111 0 190.5 -74.5t79.5 -201.5q0 -82 -37.5 -143.5t-99 -95.5t-135.5 -34q-109 0 -188.5 74t-79.5 199zM338 1184q0 -74 43 -111t92 -37q51 0 94 37t43 111t-42 110.5t-93 36.5q-49 0 -93 -37t-44 -110z" />
<glyph unicode="&#xb1;" horiz-adv-x="1234" d="M41 0l29 150h970l-26 -150h-973zM137 545l27 145h407l52 289h155l-51 -289h410l-27 -145h-410l-51 -289h-153l51 289h-410z" />
<glyph unicode="&#xb2;" horiz-adv-x="675" d="M96 721l17 98l264 189q68 49 117 100t61 121q10 61 -16.5 91t-73.5 30q-111 0 -146 -121h-137q23 94 101.5 159.5t205.5 65.5q117 0 172.5 -64.5t38.5 -154.5q-16 -84 -76.5 -147.5t-168.5 -133.5l-187 -123h371l-21 -110h-522z" />
<glyph unicode="&#xb3;" horiz-adv-x="675" d="M117 930h135q-2 -66 30.5 -90.5t86.5 -24.5q61 0 102 29.5t49 81.5q10 55 -23.5 84.5t-95.5 29.5h-94l17 84h92q59 0 101 29t52 84q10 51 -18.5 81t-87.5 30t-97 -26t-57 -71h-129q25 86 106 144.5t206 58.5q113 0 177 -59.5t48 -149.5q-10 -63 -53 -104t-107 -58l-2 -4 q57 -18 89 -60t20 -110q-14 -82 -97.5 -140t-212.5 -58q-123 0 -185.5 56t-51.5 163z" />
<glyph unicode="&#xb4;" horiz-adv-x="522" d="M152 1100l20 129l477 260l-26 -150z" />
<glyph unicode="&#xb5;" horiz-adv-x="1196" d="M-29 -451l260 1467h172l-100 -576q-4 -27 -7 -51t-3 -47q0 -219 215 -219q127 0 229.5 90t136.5 258l97 545h172l-178 -1016h-156l20 182q-66 -96 -168 -151.5t-219 -55.5q-133 0 -211 72l-88 -498h-172z" />
<glyph unicode="&#xb6;" horiz-adv-x="1208" d="M164 975q0 150 71.5 252t198.5 154.5t295 52.5h492l-289 -1639h-152l267 1503h-170l-265 -1503h-151l143 809h-20q-145 0 -238.5 53.5t-137.5 138.5t-44 179z" />
<glyph unicode="&#xb7;" horiz-adv-x="401" d="M117 700q0 51 33.5 84t85.5 33q51 0 83.5 -32.5t32.5 -84.5q0 -49 -32.5 -82.5t-83.5 -33.5t-85 33.5t-34 82.5z" />
<glyph unicode="&#xb8;" horiz-adv-x="557" d="M-150 -530l19 108h188q156 0 156 107q0 84 -121 84h-102l43 245h117l-27 -143q104 2 168.5 -40t64.5 -132q0 -98 -79.5 -163.5t-198.5 -65.5h-228z" />
<glyph unicode="&#xb9;" horiz-adv-x="417" d="M178 1270l15 86l200 86h88l-127 -721h-137l105 586z" />
<glyph unicode="&#xba;" horiz-adv-x="886" d="M152 1012q0 123 59 224t159.5 161.5t223.5 60.5q143 0 231 -81t88 -216q0 -123 -59 -225t-160.5 -162.5t-224.5 -60.5q-143 0 -230 82t-87 217zM291 1024q0 -100 55 -151.5t139 -51.5q86 0 150.5 45t100.5 121t36 164q0 100 -56.5 151.5t-137.5 51.5q-88 0 -152 -48.5 t-99.5 -124t-35.5 -157.5z" />
<glyph unicode="&#xbb;" horiz-adv-x="925" d="M63 246l269 358l-142 359h170l136 -359l-263 -358h-170zM428 246l268 358l-141 359h170l135 -359l-262 -358h-170z" />
<glyph unicode="&#xbc;" horiz-adv-x="1286" d="M31 0l1009 1434h164l-1009 -1434h-164zM217 1270l14 86l201 86h88l-127 -721h-137l102 586zM526 143l13 80l417 502h181l-86 -494h96l-14 -88h-99l-26 -143h-138l27 143h-371zM678 233h237l66 365z" />
<glyph unicode="&#xbd;" horiz-adv-x="1380" d="M14 0l998 1434h166l-1000 -1434h-164zM217 1270l14 86l201 86h88l-127 -721h-137l102 586zM791 -2l16 98l264 189q68 49 118 100t60 121q12 61 -15.5 91t-74.5 30q-111 0 -143 -121h-139q23 94 101.5 159.5t205.5 65.5q117 0 172 -64.5t39 -154.5q-14 -84 -76 -147.5 t-170 -133.5l-186 -122h370l-20 -111h-522z" />
<glyph unicode="&#xbe;" horiz-adv-x="1402" d="M154 930h137q-2 -66 30.5 -90.5t86.5 -24.5q61 0 102 29.5t49 81.5q10 55 -23.5 84.5t-95.5 29.5h-94l14 84h95q59 0 101 29t52 84q10 51 -18.5 81t-87.5 30t-97 -26t-57 -71h-129q23 86 103.5 144.5t207.5 58.5q113 0 176.5 -59.5t49.5 -149.5q-12 -63 -55.5 -104 t-104.5 -58l-2 -4q55 -18 87 -60t19 -110q-14 -82 -97 -140t-210 -58q-125 0 -186.5 56t-52.5 163zM174 0l1028 1434h162l-1026 -1434h-164zM641 143l14 80l414 502h182l-86 -494h99l-15 -88h-100l-27 -143h-135l27 143h-373zM795 231h237l66 369z" />
<glyph unicode="&#xbf;" horiz-adv-x="1056" d="M18 20q0 158 75 267.5t207 167t302 57.5l45 211h148l-50 -332h-61q-145 0 -257 -32.5t-176.5 -109.5t-64.5 -212q0 -100 65.5 -162.5t178.5 -62.5q131 0 220 70.5t112 193.5h162q-20 -123 -93 -216t-182.5 -144.5t-242.5 -51.5q-176 0 -282 97.5t-106 258.5zM645 1016 q0 49 33 84t84 35t85 -35t34 -84t-34 -83t-85 -34t-84 34t-33 83z" />
<glyph unicode="&#xc0;" horiz-adv-x="1359" d="M-29 0l783 1434h182l272 -1434h-178l-67 369h-611l-196 -369h-185zM424 504h514l-131 725zM532 1757l25 150l385 -260l-23 -129z" />
<glyph unicode="&#xc1;" horiz-adv-x="1359" d="M-29 0l783 1434h182l272 -1434h-178l-67 369h-611l-196 -369h-185zM424 504h514l-131 725zM770 1518l21 129l477 260l-27 -150z" />
<glyph unicode="&#xc2;" horiz-adv-x="1359" d="M-29 0l783 1434h182l272 -1434h-178l-67 369h-611l-196 -369h-185zM424 504h514l-131 725zM583 1552l25 134l311 167l250 -167l-25 -134l-249 172z" />
<glyph unicode="&#xc3;" horiz-adv-x="1359" d="M-29 0l783 1434h182l272 -1434h-178l-67 369h-611l-196 -369h-185zM424 504h514l-131 725zM577 1554q33 102 93.5 154.5t138.5 52.5q55 0 85.5 -24.5t59.5 -48t74 -23.5q33 0 61.5 22.5t42.5 69.5h101q-31 -100 -93.5 -153.5t-140.5 -53.5q-55 0 -88 24.5t-60.5 48.5 t-70.5 24q-76 0 -102 -93h-101z" />
<glyph unicode="&#xc4;" horiz-adv-x="1359" d="M-29 0l783 1434h182l272 -1434h-178l-67 369h-611l-196 -369h-185zM424 504h514l-131 725zM623 1690q0 41 29.5 71.5t72.5 30.5t73 -30.5t30 -71.5q0 -43 -30 -73t-73 -30t-72.5 30t-29.5 73zM953 1690q0 41 28.5 71.5t73.5 30.5q41 0 70.5 -30.5t29.5 -71.5 q0 -43 -29.5 -73t-70.5 -30q-45 0 -73.5 30t-28.5 73z" />
<glyph unicode="&#xc5;" horiz-adv-x="1359" d="M-29 0l783 1434h182l272 -1434h-178l-67 369h-611l-196 -369h-185zM424 504h514l-131 725zM690 1769q0 98 63.5 154.5t151.5 56.5q90 0 152.5 -56t62.5 -155q0 -98 -62.5 -154t-152.5 -56q-88 0 -151.5 56t-63.5 154zM789 1769q0 -55 34.5 -88.5t81.5 -33.5q49 0 83 33.5 t34 88.5t-34 88t-83 33q-47 0 -81.5 -32.5t-34.5 -88.5z" />
<glyph unicode="&#xc6;" horiz-adv-x="1878" d="M-29 0l1071 1434h871l-25 -138h-592l-90 -505h531l-23 -136h-530l-90 -518h589l-24 -137h-764l57 326h-549l-243 -326h-189zM504 463h473l147 829z" />
<glyph unicode="&#xc7;" horiz-adv-x="1478" d="M121 549q0 193 62.5 358.5t175 289.5t263 192.5t326.5 68.5q246 0 381 -117.5t141 -328.5h-194q-4 137 -92 216t-260 79q-133 0 -247 -56.5t-198 -158t-131 -236.5t-47 -293q0 -207 110.5 -321.5t307.5 -114.5q172 0 285.5 78t166.5 211h195q-80 -209 -254 -325 t-418 -116q-182 0 -310 72t-195.5 201t-67.5 301zM457 -532l18 108h189q156 0 155 107q0 84 -121 84h-102l43 245h117l-27 -143q106 2 170 -40t64 -132q0 -98 -80 -163.5t-199 -65.5h-227z" />
<glyph unicode="&#xc8;" horiz-adv-x="1110" d="M63 0l252 1434h830l-27 -138h-655l-88 -505h594l-23 -136h-596l-90 -518h655l-24 -137h-828zM420 1757l25 150l385 -260l-23 -129z" />
<glyph unicode="&#xc9;" horiz-adv-x="1110" d="M63 0l252 1434h830l-27 -138h-655l-88 -505h594l-23 -136h-596l-90 -518h655l-24 -137h-828zM655 1518l21 129l477 260l-27 -150z" />
<glyph unicode="&#xca;" horiz-adv-x="1110" d="M63 0l252 1434h830l-27 -138h-655l-88 -505h594l-23 -136h-596l-90 -518h655l-24 -137h-828zM469 1552l25 134l311 167l250 -167l-25 -134l-249 172z" />
<glyph unicode="&#xcb;" horiz-adv-x="1110" d="M63 0l252 1434h830l-27 -138h-655l-88 -505h594l-23 -136h-596l-90 -518h655l-24 -137h-828zM510 1690q0 41 29.5 71.5t72.5 30.5t73 -30.5t30 -71.5q0 -43 -30 -73t-73 -30t-72.5 30t-29.5 73zM840 1690q0 41 28.5 71.5t73.5 30.5q41 0 70.5 -30.5t29.5 -71.5 q0 -43 -29.5 -73t-70.5 -30q-45 0 -73.5 30t-28.5 73z" />
<glyph unicode="&#xcc;" horiz-adv-x="477" d="M63 0l252 1434h172l-251 -1434h-173zM88 1757l25 150l385 -260l-23 -129z" />
<glyph unicode="&#xcd;" horiz-adv-x="477" d="M63 0l252 1434h172l-251 -1434h-173zM323 1518l21 129l477 260l-27 -150z" />
<glyph unicode="&#xce;" horiz-adv-x="477" d="M63 0l252 1434h172l-251 -1434h-173zM137 1552l25 134l311 167l250 -167l-25 -134l-249 172z" />
<glyph unicode="&#xcf;" horiz-adv-x="477" d="M63 0l252 1434h172l-251 -1434h-173zM178 1690q0 41 29.5 71.5t72.5 30.5t73 -30.5t30 -71.5q0 -43 -30 -73t-73 -30t-72.5 30t-29.5 73zM508 1690q0 41 28.5 71.5t73.5 30.5q41 0 70.5 -30.5t29.5 -71.5q0 -43 -29.5 -73t-70.5 -30q-45 0 -73.5 30t-28.5 73z" />
<glyph unicode="&#xd0;" horiz-adv-x="1466" d="M29 637l26 156h178l113 641h440q324 0 476.5 -150.5t152.5 -429.5q0 -252 -108.5 -444.5t-306 -301t-465.5 -108.5h-441l113 637h-178zM293 143h264q215 0 366.5 86t232.5 243t81 370q0 219 -111.5 333.5t-367.5 114.5h-264l-88 -497h411l-26 -156h-412z" />
<glyph unicode="&#xd1;" horiz-adv-x="1413" d="M63 0l252 1434h170l564 -1162l202 1162h172l-252 -1434h-172l-559 1161l-204 -1161h-173zM602 1554q33 102 93.5 154.5t138.5 52.5q55 0 85.5 -24.5t59.5 -48t74 -23.5q33 0 61.5 22.5t42.5 69.5h101q-31 -100 -93.5 -153.5t-140.5 -53.5q-55 0 -88 24.5t-60.5 48.5 t-70.5 24q-76 0 -102 -93h-101z" />
<glyph unicode="&#xd2;" horiz-adv-x="1628" d="M125 586q0 182 66.5 339.5t184.5 277.5t273.5 187.5t329.5 67.5q178 0 312 -77.5t210 -215t76 -315.5q0 -182 -66.5 -341t-185.5 -278.5t-273.5 -187.5t-328.5 -68q-178 0 -313.5 79t-210 217.5t-74.5 314.5zM303 596q0 -143 56.5 -248.5t157 -163t231.5 -57.5 q133 0 251.5 55.5t207.5 152.5t140.5 227t51.5 280q0 143 -56.5 246.5t-157 160t-231.5 56.5q-135 0 -252.5 -54.5t-208 -152t-140.5 -225.5t-50 -277zM667 1757l25 150l385 -260l-23 -129z" />
<glyph unicode="&#xd3;" horiz-adv-x="1628" d="M125 586q0 182 66.5 339.5t184.5 277.5t273.5 187.5t329.5 67.5q178 0 312 -77.5t210 -215t76 -315.5q0 -182 -66.5 -341t-185.5 -278.5t-273.5 -187.5t-328.5 -68q-178 0 -313.5 79t-210 217.5t-74.5 314.5zM303 596q0 -143 56.5 -248.5t157 -163t231.5 -57.5 q133 0 251.5 55.5t207.5 152.5t140.5 227t51.5 280q0 143 -56.5 246.5t-157 160t-231.5 56.5q-135 0 -252.5 -54.5t-208 -152t-140.5 -225.5t-50 -277zM903 1518l21 129l477 260l-27 -150z" />
<glyph unicode="&#xd4;" horiz-adv-x="1628" d="M125 586q0 182 66.5 339.5t184.5 277.5t273.5 187.5t329.5 67.5q178 0 312 -77.5t210 -215t76 -315.5q0 -182 -66.5 -341t-185.5 -278.5t-273.5 -187.5t-328.5 -68q-178 0 -313.5 79t-210 217.5t-74.5 314.5zM303 596q0 -143 56.5 -248.5t157 -163t231.5 -57.5 q133 0 251.5 55.5t207.5 152.5t140.5 227t51.5 280q0 143 -56.5 246.5t-157 160t-231.5 56.5q-135 0 -252.5 -54.5t-208 -152t-140.5 -225.5t-50 -277zM716 1552l25 134l311 167l250 -167l-25 -134l-249 172z" />
<glyph unicode="&#xd5;" horiz-adv-x="1628" d="M125 586q0 182 66.5 339.5t184.5 277.5t273.5 187.5t329.5 67.5q178 0 312 -77.5t210 -215t76 -315.5q0 -182 -66.5 -341t-185.5 -278.5t-273.5 -187.5t-328.5 -68q-178 0 -313.5 79t-210 217.5t-74.5 314.5zM303 596q0 -143 56.5 -248.5t157 -163t231.5 -57.5 q133 0 251.5 55.5t207.5 152.5t140.5 227t51.5 280q0 143 -56.5 246.5t-157 160t-231.5 56.5q-135 0 -252.5 -54.5t-208 -152t-140.5 -225.5t-50 -277zM710 1554q33 102 93.5 154.5t138.5 52.5q55 0 85.5 -24.5t59.5 -48t74 -23.5q33 0 61.5 22.5t42.5 69.5h101 q-31 -100 -93.5 -153.5t-140.5 -53.5q-55 0 -88 24.5t-60.5 48.5t-70.5 24q-76 0 -102 -93h-101z" />
<glyph unicode="&#xd6;" horiz-adv-x="1628" d="M125 586q0 182 66.5 339.5t184.5 277.5t273.5 187.5t329.5 67.5q178 0 312 -77.5t210 -215t76 -315.5q0 -182 -66.5 -341t-185.5 -278.5t-273.5 -187.5t-328.5 -68q-178 0 -313.5 79t-210 217.5t-74.5 314.5zM303 596q0 -143 56.5 -248.5t157 -163t231.5 -57.5 q133 0 251.5 55.5t207.5 152.5t140.5 227t51.5 280q0 143 -56.5 246.5t-157 160t-231.5 56.5q-135 0 -252.5 -54.5t-208 -152t-140.5 -225.5t-50 -277zM756 1690q0 41 29.5 71.5t72.5 30.5t73 -30.5t30 -71.5q0 -43 -30 -73t-73 -30t-72.5 30t-29.5 73zM1086 1690 q0 41 28.5 71.5t73.5 30.5q41 0 70.5 -30.5t29.5 -71.5q0 -43 -29.5 -73t-70.5 -30q-45 0 -73.5 30t-28.5 73z" />
<glyph unicode="&#xd7;" horiz-adv-x="1013" d="M94 319l324 277l-217 264l118 98l220 -264l325 281l84 -103l-327 -280l219 -264l-119 -99l-217 265l-324 -277z" />
<glyph unicode="&#xd8;" horiz-adv-x="1611" d="M-10 0l233 221q-51 74 -78.5 167t-27.5 198q0 182 67.5 339.5t185 277.5t272.5 187.5t331 67.5q123 0 226.5 -39t180.5 -108l131 123h183l-230 -217q51 -74 79 -167.5t28 -199.5q0 -182 -67.5 -341t-185.5 -278.5t-272.5 -187.5t-330.5 -68q-123 0 -226.5 39t-181.5 111 l-133 -125h-184zM295 596q0 -143 59 -252l901 848q-121 113 -307 113q-135 0 -254 -54.5t-208 -152t-140 -225t-51 -277.5zM432 242q121 -115 307 -115q135 0 253 55.5t208 152.5t141.5 227t51.5 280q0 143 -60 252z" />
<glyph unicode="&#xd9;" horiz-adv-x="1366" d="M129 389q0 66 12 139l162 906h172l-162 -906q-12 -61 -12 -112q0 -150 83 -217.5t220 -67.5q160 0 275.5 94t152.5 303l162 906h172l-160 -906q-33 -190 -126 -313t-225.5 -181.5t-279.5 -58.5q-129 0 -229 44t-158.5 136.5t-58.5 233.5zM520 1757l25 150l385 -260 l-23 -129z" />
<glyph unicode="&#xda;" horiz-adv-x="1366" d="M129 389q0 66 12 139l162 906h172l-162 -906q-12 -61 -12 -112q0 -150 83 -217.5t220 -67.5q160 0 275.5 94t152.5 303l162 906h172l-160 -906q-33 -190 -126 -313t-225.5 -181.5t-279.5 -58.5q-129 0 -229 44t-158.5 136.5t-58.5 233.5zM755 1518l21 129l477 260 l-27 -150z" />
<glyph unicode="&#xdb;" horiz-adv-x="1366" d="M129 389q0 66 12 139l162 906h172l-162 -906q-12 -61 -12 -112q0 -150 83 -217.5t220 -67.5q160 0 275.5 94t152.5 303l162 906h172l-160 -906q-33 -190 -126 -313t-225.5 -181.5t-279.5 -58.5q-129 0 -229 44t-158.5 136.5t-58.5 233.5zM569 1552l25 134l311 167 l250 -167l-25 -134l-249 172z" />
<glyph unicode="&#xdc;" horiz-adv-x="1366" d="M129 389q0 66 12 139l162 906h172l-162 -906q-12 -61 -12 -112q0 -150 83 -217.5t220 -67.5q160 0 275.5 94t152.5 303l162 906h172l-160 -906q-33 -190 -126 -313t-225.5 -181.5t-279.5 -58.5q-129 0 -229 44t-158.5 136.5t-58.5 233.5zM608 1690q0 41 29.5 71.5 t72.5 30.5t73 -30.5t30 -71.5q0 -43 -30 -73t-73 -30t-72.5 30t-29.5 73zM938 1690q0 41 28.5 71.5t73.5 30.5q41 0 70.5 -30.5t29.5 -71.5q0 -43 -29.5 -73t-70.5 -30q-45 0 -73.5 30t-28.5 73z" />
<glyph unicode="&#xdd;" horiz-adv-x="1185" d="M190 1434h197l229 -725l488 725h192l-622 -889l-96 -545h-172l96 545zM667 1518l21 129l477 260l-27 -150z" />
<glyph unicode="&#xde;" horiz-adv-x="1191" d="M63 0l252 1434h172l-51 -299h299q219 0 321.5 -100.5t102.5 -250.5q0 -147 -71.5 -255.5t-200.5 -168t-299 -59.5h-299l-53 -301h-173zM313 444h297q176 0 273.5 90.5t97.5 247.5q0 102 -64.5 155.5t-209.5 53.5h-295z" />
<glyph unicode="&#xdf;" horiz-adv-x="1370" d="M55 0l191 1065q20 125 90 223t183.5 154.5t273.5 56.5q193 0 291 -83t98 -202q0 -84 -37 -140t-92.5 -96t-109.5 -70.5t-91 -62.5t-37 -73q0 -39 41 -69.5t166 -73.5q121 -43 174 -107.5t53 -169.5q0 -109 -56 -192.5t-154.5 -131.5t-225.5 -48q-178 0 -274.5 100 t-81.5 266h172q-10 -104 44 -167.5t161 -63.5q106 0 172.5 59t66.5 160q0 57 -41 97t-135 73q-135 49 -197.5 100t-62.5 133q0 68 37 114t92 82t109.5 69.5t92.5 77.5t38 110q0 74 -62.5 119t-177.5 45q-156 0 -241 -82t-111 -223l-187 -1049h-172z" />
<glyph unicode="&#xe0;" horiz-adv-x="1103" d="M53 248q0 113 63.5 194.5t177.5 125.5t265 44h272l3 13q6 35 6 69q0 98 -56.5 149.5t-156.5 51.5q-98 0 -182.5 -50t-116.5 -147h-178q33 111 107.5 187t177 115.5t214.5 39.5q182 0 273.5 -86t91.5 -233q0 -23 -2 -47.5t-6 -48.5l-109 -625h-156l21 180 q-57 -86 -150.5 -145.5t-230.5 -59.5q-115 0 -186.5 38t-106.5 100.5t-35 134.5zM238 268q0 -70 50 -108.5t144 -38.5q98 0 177 51t130.5 133t67.5 172v2h-258q-145 0 -228 -56t-83 -155zM332 1339l24 150l385 -260l-22 -129z" />
<glyph unicode="&#xe1;" horiz-adv-x="1103" d="M53 248q0 113 63.5 194.5t177.5 125.5t265 44h272l3 13q6 35 6 69q0 98 -56.5 149.5t-156.5 51.5q-98 0 -182.5 -50t-116.5 -147h-178q33 111 107.5 187t177 115.5t214.5 39.5q182 0 273.5 -86t91.5 -233q0 -23 -2 -47.5t-6 -48.5l-109 -625h-156l21 180 q-57 -86 -150.5 -145.5t-230.5 -59.5q-115 0 -186.5 38t-106.5 100.5t-35 134.5zM238 268q0 -70 50 -108.5t144 -38.5q98 0 177 51t130.5 133t67.5 172v2h-258q-145 0 -228 -56t-83 -155zM568 1100l20 129l477 260l-26 -150z" />
<glyph unicode="&#xe2;" horiz-adv-x="1103" d="M53 248q0 113 63.5 194.5t177.5 125.5t265 44h272l3 13q6 35 6 69q0 98 -56.5 149.5t-156.5 51.5q-98 0 -182.5 -50t-116.5 -147h-178q33 111 107.5 187t177 115.5t214.5 39.5q182 0 273.5 -86t91.5 -233q0 -23 -2 -47.5t-6 -48.5l-109 -625h-156l21 180 q-57 -86 -150.5 -145.5t-230.5 -59.5q-115 0 -186.5 38t-106.5 100.5t-35 134.5zM238 268q0 -70 50 -108.5t144 -38.5q98 0 177 51t130.5 133t67.5 172v2h-258q-145 0 -228 -56t-83 -155zM381 1135l24 133l312 168l249 -168l-24 -133l-250 172z" />
<glyph unicode="&#xe3;" horiz-adv-x="1103" d="M53 248q0 113 63.5 194.5t177.5 125.5t265 44h272l3 13q6 35 6 69q0 98 -56.5 149.5t-156.5 51.5q-98 0 -182.5 -50t-116.5 -147h-178q33 111 107.5 187t177 115.5t214.5 39.5q182 0 273.5 -86t91.5 -233q0 -23 -2 -47.5t-6 -48.5l-109 -625h-156l21 180 q-57 -86 -150.5 -145.5t-230.5 -59.5q-115 0 -186.5 38t-106.5 100.5t-35 134.5zM238 268q0 -70 50 -108.5t144 -38.5q98 0 177 51t130.5 133t67.5 172v2h-258q-145 0 -228 -56t-83 -155zM357 1137q33 102 94 154t137 52q55 0 87 -24.5t59.5 -48t72.5 -23.5q33 0 61.5 22.5 t43.5 69.5h100q-29 -100 -92.5 -153t-141.5 -53q-55 0 -87.5 24.5t-60.5 48t-69 23.5q-76 0 -104 -92h-100z" />
<glyph unicode="&#xe4;" horiz-adv-x="1103" d="M53 248q0 113 63.5 194.5t177.5 125.5t265 44h272l3 13q6 35 6 69q0 98 -56.5 149.5t-156.5 51.5q-98 0 -182.5 -50t-116.5 -147h-178q33 111 107.5 187t177 115.5t214.5 39.5q182 0 273.5 -86t91.5 -233q0 -23 -2 -47.5t-6 -48.5l-109 -625h-156l21 180 q-57 -86 -150.5 -145.5t-230.5 -59.5q-115 0 -186.5 38t-106.5 100.5t-35 134.5zM238 268q0 -70 50 -108.5t144 -38.5q98 0 177 51t130.5 133t67.5 172v2h-258q-145 0 -228 -56t-83 -155zM422 1272q0 41 29.5 71.5t72.5 30.5q41 0 72 -30.5t31 -71.5q0 -43 -31 -73t-72 -30 q-43 0 -72.5 30t-29.5 73zM749 1272q0 41 30 71.5t73 30.5t71.5 -30.5t28.5 -71.5q0 -43 -28.5 -73t-71.5 -30t-73 30t-30 73z" />
<glyph unicode="&#xe5;" horiz-adv-x="1103" d="M53 248q0 113 63.5 194.5t177.5 125.5t265 44h272l3 13q6 35 6 69q0 98 -56.5 149.5t-156.5 51.5q-98 0 -182.5 -50t-116.5 -147h-178q33 111 107.5 187t177 115.5t214.5 39.5q182 0 273.5 -86t91.5 -233q0 -23 -2 -47.5t-6 -48.5l-109 -625h-156l21 180 q-57 -86 -150.5 -145.5t-230.5 -59.5q-115 0 -186.5 38t-106.5 100.5t-35 134.5zM238 268q0 -70 50 -108.5t144 -38.5q98 0 177 51t130.5 133t67.5 172v2h-258q-145 0 -228 -56t-83 -155zM488 1352q0 98 64.5 154.5t150.5 56.5q90 0 152.5 -56.5t62.5 -154.5t-62.5 -154.5 t-152.5 -56.5q-86 0 -150.5 56t-64.5 155zM588 1352q0 -55 34 -89t81 -34q49 0 83.5 33.5t34.5 89.5q0 55 -34.5 88t-83.5 33q-47 0 -81 -33t-34 -88z" />
<glyph unicode="&#xe6;" horiz-adv-x="1896" d="M53 242q0 113 62.5 195.5t172 128.5t253.5 46h307q8 45 8 82q0 98 -56.5 149.5t-154.5 51.5q-100 0 -183 -50t-118 -147h-176q31 111 108.5 187t181 115.5t212.5 39.5q133 0 217 -48t117 -136q80 86 190.5 135t237.5 49q129 0 219 -52t136 -140t46 -195q0 -27 -6 -66.5 t-12.5 -73.5t-8.5 -44h-809q-6 -31 -6 -61q0 -143 82 -215t193 -72q115 0 200.5 57.5t135.5 155.5h167q-45 -102 -120.5 -183t-179 -128.5t-230.5 -47.5q-139 0 -239.5 67t-143.5 181q-70 -102 -192.5 -175t-276.5 -73q-170 0 -252 78t-82 189zM236 268q0 -66 51 -106.5 t143 -40.5t170 44t134.5 113.5t78.5 149.5l8 51h-291q-131 0 -212.5 -54t-81.5 -157zM1022 602h639q2 12 3 23.5t1 21.5q0 117 -72.5 182.5t-189.5 65.5q-125 0 -232.5 -75t-148.5 -218z" />
<glyph unicode="&#xe7;" horiz-adv-x="1165" d="M88 408q0 135 47 250.5t131 201.5t194.5 133t237.5 47q184 0 293 -96t111 -260h-176q0 104 -74 156.5t-178 52.5q-113 0 -205 -60.5t-147.5 -166t-55.5 -240.5q0 -145 80 -225t193 -80q104 0 195 53t130 158h176q-39 -104 -116.5 -185t-183 -126.5t-228.5 -45.5 q-125 0 -221 54.5t-149.5 152t-53.5 226.5zM278 -532l19 108h188q156 0 156 107q0 84 -121 84h-102l43 245h117l-27 -143q104 2 168.5 -40t64.5 -132q0 -98 -79.5 -163.5t-198.5 -65.5h-228z" />
<glyph unicode="&#xe8;" horiz-adv-x="1163" d="M88 406q0 176 78 320t214 229t310 85q133 0 224.5 -52t137.5 -140t46 -195q0 -41 -9.5 -93t-17.5 -91h-811q-4 -35 -4 -61q0 -145 82 -216t192 -71q106 0 187.5 50t126.5 132h170q-63 -141 -196.5 -234.5t-313.5 -93.5q-188 0 -302 117t-114 314zM287 602h639 q2 12 3 23.5t1 21.5q0 117 -71.5 182.5t-190.5 65.5q-123 0 -231.5 -75t-149.5 -218zM375 1339l24 150l385 -260l-22 -129z" />
<glyph unicode="&#xe9;" horiz-adv-x="1163" d="M88 406q0 176 78 320t214 229t310 85q133 0 224.5 -52t137.5 -140t46 -195q0 -41 -9.5 -93t-17.5 -91h-811q-4 -35 -4 -61q0 -145 82 -216t192 -71q106 0 187.5 50t126.5 132h170q-63 -141 -196.5 -234.5t-313.5 -93.5q-188 0 -302 117t-114 314zM287 602h639 q2 12 3 23.5t1 21.5q0 117 -71.5 182.5t-190.5 65.5q-123 0 -231.5 -75t-149.5 -218zM613 1100l20 129l477 260l-26 -150z" />
<glyph unicode="&#xea;" horiz-adv-x="1163" d="M88 406q0 176 78 320t214 229t310 85q133 0 224.5 -52t137.5 -140t46 -195q0 -41 -9.5 -93t-17.5 -91h-811q-4 -35 -4 -61q0 -145 82 -216t192 -71q106 0 187.5 50t126.5 132h170q-63 -141 -196.5 -234.5t-313.5 -93.5q-188 0 -302 117t-114 314zM287 602h639 q2 12 3 23.5t1 21.5q0 117 -71.5 182.5t-190.5 65.5q-123 0 -231.5 -75t-149.5 -218zM424 1135l24 133l312 168l249 -168l-24 -133l-250 172z" />
<glyph unicode="&#xeb;" horiz-adv-x="1163" d="M88 406q0 176 78 320t214 229t310 85q133 0 224.5 -52t137.5 -140t46 -195q0 -41 -9.5 -93t-17.5 -91h-811q-4 -35 -4 -61q0 -145 82 -216t192 -71q106 0 187.5 50t126.5 132h170q-63 -141 -196.5 -234.5t-313.5 -93.5q-188 0 -302 117t-114 314zM287 602h639 q2 12 3 23.5t1 21.5q0 117 -71.5 182.5t-190.5 65.5q-123 0 -231.5 -75t-149.5 -218zM467 1272q0 41 29.5 71.5t72.5 30.5q41 0 72 -30.5t31 -71.5q0 -43 -31 -73t-72 -30q-43 0 -72.5 30t-29.5 73zM794 1272q0 41 30 71.5t73 30.5t71.5 -30.5t28.5 -71.5q0 -43 -28.5 -73 t-71.5 -30t-73 30t-30 73z" />
<glyph unicode="&#xec;" horiz-adv-x="456" d="M5 1339l24 150l385 -260l-22 -129zM53 0l178 1016h172l-178 -1016h-172z" />
<glyph unicode="&#xed;" horiz-adv-x="456" d="M53 0l178 1016h172l-178 -1016h-172zM240 1100l20 129l477 260l-26 -150z" />
<glyph unicode="&#xee;" horiz-adv-x="456" d="M53 0l178 1016h172l-178 -1016h-172zM54 1135l24 133l312 168l249 -168l-24 -133l-250 172z" />
<glyph unicode="&#xef;" horiz-adv-x="456" d="M53 0l178 1016h172l-178 -1016h-172zM95 1272q0 41 29.5 71.5t72.5 30.5q41 0 72 -30.5t31 -71.5q0 -43 -31 -73t-72 -30q-43 0 -72.5 30t-29.5 73zM422 1272q0 41 30 71.5t73 30.5t71.5 -30.5t28.5 -71.5q0 -43 -28.5 -73t-71.5 -30t-73 30t-30 73z" />
<glyph unicode="&#xf0;" horiz-adv-x="1261" d="M90 436q0 129 48 237.5t132 190.5t194.5 128t233.5 46q102 0 195.5 -37.5t142.5 -132.5q-16 94 -49 182.5t-88 174.5l-293 -97l23 117l207 68q-51 61 -113 121h172q39 -37 72 -78l286 94l-22 -117l-199 -65q80 -119 120 -254t40 -279q0 -193 -55.5 -336t-147.5 -237 t-204.5 -140.5t-229.5 -46.5q-145 0 -249.5 63.5t-160 169t-55.5 228.5zM268 451q0 -147 84 -238.5t221 -91.5q115 0 211.5 64.5t154.5 169t58 225.5q0 152 -90 232.5t-219 80.5q-115 0 -211 -60.5t-152.5 -161t-56.5 -220.5z" />
<glyph unicode="&#xf1;" d="M53 0l178 1016h156l-20 -185q66 98 168 153.5t219 55.5q152 0 239.5 -85t87.5 -242q0 -29 -3 -58.5t-9 -60.5l-104 -594h-172l100 575q4 27 7 51.5t3 47.5q0 219 -215 219q-129 0 -230.5 -90t-135.5 -258l-97 -545h-172zM428 1137q33 102 94 154t137 52q55 0 87 -24.5 t59.5 -48t72.5 -23.5q33 0 61.5 22.5t43.5 69.5h100q-29 -100 -92.5 -153t-141.5 -53q-55 0 -87.5 24.5t-60.5 48t-69 23.5q-76 0 -104 -92h-100z" />
<glyph unicode="&#xf2;" horiz-adv-x="1214" d="M88 418q0 135 47 247.5t129 196.5t190.5 131t235.5 47t225.5 -55t153.5 -153.5t55 -227.5q0 -133 -46 -247.5t-129 -199.5t-191.5 -133.5t-235.5 -48.5t-225 57.5t-153.5 158t-55.5 227.5zM268 424q0 -96 38 -162.5t101.5 -102.5t137.5 -36q115 0 206 61.5t144 168 t53 239.5q0 143 -83 222t-197 79q-113 0 -203 -61.5t-143.5 -168t-53.5 -239.5zM379 1339l24 150l385 -260l-22 -129z" />
<glyph unicode="&#xf3;" horiz-adv-x="1214" d="M88 418q0 135 47 247.5t129 196.5t190.5 131t235.5 47t225.5 -55t153.5 -153.5t55 -227.5q0 -133 -46 -247.5t-129 -199.5t-191.5 -133.5t-235.5 -48.5t-225 57.5t-153.5 158t-55.5 227.5zM268 424q0 -96 38 -162.5t101.5 -102.5t137.5 -36q115 0 206 61.5t144 168 t53 239.5q0 143 -83 222t-197 79q-113 0 -203 -61.5t-143.5 -168t-53.5 -239.5zM615 1100l20 129l477 260l-26 -150z" />
<glyph unicode="&#xf4;" horiz-adv-x="1214" d="M88 418q0 135 47 247.5t129 196.5t190.5 131t235.5 47t225.5 -55t153.5 -153.5t55 -227.5q0 -133 -46 -247.5t-129 -199.5t-191.5 -133.5t-235.5 -48.5t-225 57.5t-153.5 158t-55.5 227.5zM268 424q0 -96 38 -162.5t101.5 -102.5t137.5 -36q115 0 206 61.5t144 168 t53 239.5q0 143 -83 222t-197 79q-113 0 -203 -61.5t-143.5 -168t-53.5 -239.5zM428 1135l24 133l312 168l249 -168l-24 -133l-250 172z" />
<glyph unicode="&#xf5;" horiz-adv-x="1214" d="M88 418q0 135 47 247.5t129 196.5t190.5 131t235.5 47t225.5 -55t153.5 -153.5t55 -227.5q0 -133 -46 -247.5t-129 -199.5t-191.5 -133.5t-235.5 -48.5t-225 57.5t-153.5 158t-55.5 227.5zM268 424q0 -96 38 -162.5t101.5 -102.5t137.5 -36q115 0 206 61.5t144 168 t53 239.5q0 143 -83 222t-197 79q-113 0 -203 -61.5t-143.5 -168t-53.5 -239.5zM404 1137q33 102 94 154t137 52q55 0 87 -24.5t59.5 -48t72.5 -23.5q33 0 61.5 22.5t43.5 69.5h100q-29 -100 -92.5 -153t-141.5 -53q-55 0 -87.5 24.5t-60.5 48t-69 23.5q-76 0 -104 -92h-100 z" />
<glyph unicode="&#xf6;" horiz-adv-x="1214" d="M88 418q0 135 47 247.5t129 196.5t190.5 131t235.5 47t225.5 -55t153.5 -153.5t55 -227.5q0 -133 -46 -247.5t-129 -199.5t-191.5 -133.5t-235.5 -48.5t-225 57.5t-153.5 158t-55.5 227.5zM268 424q0 -96 38 -162.5t101.5 -102.5t137.5 -36q115 0 206 61.5t144 168 t53 239.5q0 143 -83 222t-197 79q-113 0 -203 -61.5t-143.5 -168t-53.5 -239.5zM469 1272q0 41 29.5 71.5t72.5 30.5q41 0 72 -30.5t31 -71.5q0 -43 -31 -73t-72 -30q-43 0 -72.5 30t-29.5 73zM796 1272q0 41 30 71.5t73 30.5t71.5 -30.5t28.5 -71.5q0 -43 -28.5 -73 t-71.5 -30t-73 30t-30 73z" />
<glyph unicode="&#xf7;" horiz-adv-x="1075" d="M133 522l25 146h815l-25 -146h-815zM385 303q0 49 34 83t85 34t84 -34t33 -83t-33 -84t-84 -35t-85 35t-34 84zM487 889q0 49 34 83t85 34q49 0 83 -34t34 -83t-34 -83t-83 -34q-51 0 -85 34t-34 83z" />
<glyph unicode="&#xf8;" horiz-adv-x="1220" d="M-2 0l168 160q-74 113 -74 258q0 135 46 247.5t129 196.5t191.5 131t233.5 47q172 0 291 -98l78 74h162l-166 -158q72 -109 71 -254q0 -133 -47 -247.5t-129 -199.5t-191.5 -133.5t-234.5 -48.5q-86 0 -158.5 27t-127.5 74l-78 -76h-164zM266 424q0 -78 27 -141l569 544 q-78 70 -190 70q-115 0 -206 -62.5t-145.5 -170t-54.5 -240.5zM358 188q78 -69 191 -69q115 0 207 62.5t145 170t53 240.5q0 80 -26 141z" />
<glyph unicode="&#xf9;" d="M92 303q0 29 2 58.5t8 60.5l107 594h172l-102 -576q-4 -27 -7.5 -51t-3.5 -47q0 -219 215 -219q129 0 231.5 90t137.5 258l96 545h172l-178 -1016h-156l21 184q-66 -98 -168 -153.5t-219 -55.5q-154 0 -241 85t-87 243zM346 1339l25 150l385 -260l-22 -129z" />
<glyph unicode="&#xfa;" d="M92 303q0 29 2 58.5t8 60.5l107 594h172l-102 -576q-4 -27 -7.5 -51t-3.5 -47q0 -219 215 -219q129 0 231.5 90t137.5 258l96 545h172l-178 -1016h-156l21 184q-66 -98 -168 -153.5t-219 -55.5q-154 0 -241 85t-87 243zM581 1100l21 129l477 260l-26 -150z" />
<glyph unicode="&#xfb;" d="M92 303q0 29 2 58.5t8 60.5l107 594h172l-102 -576q-4 -27 -7.5 -51t-3.5 -47q0 -219 215 -219q129 0 231.5 90t137.5 258l96 545h172l-178 -1016h-156l21 184q-66 -98 -168 -153.5t-219 -55.5q-154 0 -241 85t-87 243zM396 1135l24 133l311 168l250 -168l-24 -133 l-250 172z" />
<glyph unicode="&#xfc;" d="M92 303q0 29 2 58.5t8 60.5l107 594h172l-102 -576q-4 -27 -7.5 -51t-3.5 -47q0 -219 215 -219q129 0 231.5 90t137.5 258l96 545h172l-178 -1016h-156l21 184q-66 -98 -168 -153.5t-219 -55.5q-154 0 -241 85t-87 243zM436 1272q0 41 30 71.5t73 30.5t72.5 -30.5 t29.5 -71.5q0 -43 -29.5 -73t-72.5 -30t-73 30t-30 73zM766 1272q0 41 28.5 71.5t73.5 30.5q41 0 71 -30.5t30 -71.5q0 -43 -30 -73t-71 -30q-45 0 -73.5 30t-28.5 73z" />
<glyph unicode="&#xfd;" horiz-adv-x="1136" d="M84 -451l346 549h-57l-244 918h182l203 -791l494 791h180l-924 -1467h-180zM579 1100l21 129l477 260l-26 -150z" />
<glyph unicode="&#xfe;" horiz-adv-x="1269" d="M-29 -451l340 1926h172l-106 -617q61 72 154.5 127t230.5 55q131 0 225 -57t144.5 -155.5t50.5 -223.5q0 -178 -77 -320.5t-210 -225.5t-301 -83q-82 0 -150.5 29t-116.5 74t-71 94l-113 -623h-172zM311 428q0 -137 80 -220t213 -83q117 0 207 59.5t141.5 162t51.5 233.5 q0 135 -77 223t-208 88q-117 0 -209 -61.5t-145.5 -167t-53.5 -234.5z" />
<glyph unicode="&#xff;" horiz-adv-x="1136" d="M84 -451l346 549h-57l-244 918h182l203 -791l494 791h180l-924 -1467h-180zM434 1272q0 41 30 71.5t73 30.5t72.5 -30.5t29.5 -71.5q0 -43 -29.5 -73t-72.5 -30t-73 30t-30 73zM764 1272q0 41 28.5 71.5t73.5 30.5q41 0 71 -30.5t30 -71.5q0 -43 -30 -73t-71 -30 q-45 0 -73.5 30t-28.5 73z" />
<glyph unicode="&#x152;" horiz-adv-x="2283" d="M127 610q0 176 66.5 330t181 270.5t262 182t311.5 65.5q168 0 300 -72.5t200 -207.5l45 256h825l-26 -142h-654l-88 -499h592l-24 -140h-592l-90 -512h653l-25 -141h-825l45 254q-115 -135 -266.5 -207t-317.5 -72q-168 0 -297 82t-202.5 225.5t-73.5 327.5zM307 621 q0 -152 56.5 -262.5t152.5 -171t217 -60.5q133 0 250 56.5t205 155.5t137 230t49 281q0 143 -57 245.5t-158.5 156t-228.5 53.5q-125 0 -236.5 -53.5t-198.5 -147.5t-137.5 -218t-50.5 -265z" />
<glyph unicode="&#x153;" horiz-adv-x="2013" d="M88 418q0 135 47 247.5t129 196.5t190.5 131t235.5 47q135 0 236.5 -62.5t150.5 -170.5q82 109 205 171t266 62q131 0 220.5 -52t135.5 -140t46 -195q0 -27 -5.5 -66.5t-12.5 -73.5t-9 -44h-809q-6 -33 -6 -63q0 -143 82 -214t192 -71q115 0 201 57.5t135 155.5h168 q-43 -102 -119.5 -183t-180 -128.5t-228.5 -47.5q-133 0 -229.5 60.5t-143.5 165.5q-82 -102 -202 -164t-261 -62q-127 0 -225 57.5t-153.5 158t-55.5 227.5zM268 424q0 -96 38 -162.5t101.5 -102.5t137.5 -36q115 0 206 61.5t144 168t53 239.5q0 143 -83 222t-197 79 q-113 0 -203 -61.5t-143.5 -168t-53.5 -239.5zM1139 602h639q2 12 3 24.5t1 22.5q0 115 -73 180.5t-189 65.5q-123 0 -231.5 -75t-149.5 -218z" />
<glyph unicode="&#x178;" horiz-adv-x="1185" d="M190 1434h197l229 -725l488 725h192l-622 -889l-96 -545h-172l96 545zM522 1690q0 41 29.5 71.5t72.5 30.5t73 -30.5t30 -71.5q0 -43 -30 -73t-73 -30t-72.5 30t-29.5 73zM852 1690q0 41 28.5 71.5t73.5 30.5q41 0 70.5 -30.5t29.5 -71.5q0 -43 -29.5 -73t-70.5 -30 q-45 0 -73.5 30t-28.5 73z" />
<glyph unicode="&#x2c6;" horiz-adv-x="653" d="M156 1135l24 133l312 168l249 -168l-24 -133l-250 172z" />
<glyph unicode="&#x2dc;" horiz-adv-x="706" d="M154 1137q33 102 94 154t137 52q55 0 87 -24.5t59.5 -48t72.5 -23.5q33 0 61.5 22.5t43.5 69.5h100q-29 -100 -92.5 -153t-141.5 -53q-55 0 -87.5 24.5t-60.5 48t-69 23.5q-76 0 -104 -92h-100z" />
<glyph unicode="&#x2000;" horiz-adv-x="990" />
<glyph unicode="&#x2001;" horiz-adv-x="1980" />
<glyph unicode="&#x2002;" horiz-adv-x="990" />
<glyph unicode="&#x2003;" horiz-adv-x="1980" />
<glyph unicode="&#x2004;" horiz-adv-x="660" />
<glyph unicode="&#x2005;" horiz-adv-x="495" />
<glyph unicode="&#x2006;" horiz-adv-x="330" />
<glyph unicode="&#x2007;" horiz-adv-x="330" />
<glyph unicode="&#x2008;" horiz-adv-x="247" />
<glyph unicode="&#x2009;" horiz-adv-x="396" />
<glyph unicode="&#x200a;" horiz-adv-x="110" />
<glyph unicode="&#x2010;" horiz-adv-x="1052" d="M125 522l25 146h811l-25 -146h-811z" />
<glyph unicode="&#x2011;" horiz-adv-x="1052" d="M125 522l25 146h811l-25 -146h-811z" />
<glyph unicode="&#x2012;" horiz-adv-x="1052" d="M125 522l25 146h811l-25 -146h-811z" />
<glyph unicode="&#x2013;" horiz-adv-x="1314" d="M125 522l25 146h1073l-27 -146h-1071z" />
<glyph unicode="&#x2014;" horiz-adv-x="1734" d="M125 522l25 146h1490l-24 -146h-1491z" />
<glyph unicode="&#x2018;" horiz-adv-x="436" d="M133 977l268 457h123l-198 -457h-193z" />
<glyph unicode="&#x2019;" horiz-adv-x="436" d="M160 977l196 457h193l-266 -457h-123z" />
<glyph unicode="&#x201a;" horiz-adv-x="376" d="M-133 -250l199 459h192l-268 -459h-123z" />
<glyph unicode="&#x201c;" horiz-adv-x="761" d="M133 977l268 457h123l-198 -457h-193zM459 977l268 457h123l-197 -457h-194z" />
<glyph unicode="&#x201d;" horiz-adv-x="759" d="M158 975l198 457h193l-268 -457h-123zM483 975l199 457h192l-268 -457h-123z" />
<glyph unicode="&#x201e;" horiz-adv-x="722" d="M-133 -250l199 459h192l-268 -459h-123zM215 -250l197 459h192l-266 -459h-123z" />
<glyph unicode="&#x2022;" horiz-adv-x="710" d="M139 682q0 70 34 126t89 89t123 33q70 0 126 -33t89 -89t33 -126q0 -68 -33 -124t-89 -89t-126 -33q-68 0 -123 33t-89 89t-34 124z" />
<glyph unicode="&#x2026;" horiz-adv-x="1157" d="M12 106q0 49 34 83t85 34t84 -33.5t33 -83.5q0 -49 -33 -82.5t-84 -33.5t-85 33.5t-34 82.5zM389 106q0 49 34 83t85 34t84 -33.5t33 -83.5q0 -49 -33 -82.5t-84 -33.5t-85 33.5t-34 82.5zM766 106q0 49 34 83t85 34t84 -33.5t33 -83.5q0 -49 -33 -82.5t-84 -33.5 t-85 33.5t-34 82.5z" />
<glyph unicode="&#x202f;" horiz-adv-x="396" />
<glyph unicode="&#x2039;" horiz-adv-x="563" d="M98 604l262 359h170l-268 -359l144 -358h-173z" />
<glyph unicode="&#x203a;" horiz-adv-x="561" d="M63 246l269 358l-142 359h170l136 -359l-263 -358h-170z" />
<glyph unicode="&#x205f;" horiz-adv-x="495" />
<glyph unicode="&#x20ac;" horiz-adv-x="1579" d="M29 489l22 127h172q6 96 29 187h-166l23 129h184q63 158 176 276.5t260.5 184t319.5 65.5q246 0 381 -117.5t141 -328.5h-195q-4 137 -92 216t-260 79q-180 0 -324.5 -102.5t-222.5 -272.5h516l-22 -129h-539q-25 -90 -31 -187h535l-23 -127h-510q20 -172 128 -267 t286 -95q172 0 287 78t168 211h194q-82 -209 -255 -325t-416 -116q-256 0 -404.5 140.5t-167.5 373.5h-194z" />
<glyph unicode="&#x2122;" horiz-adv-x="1581" d="M188 1325l19 109h502l-19 -109h-184l-109 -612h-135l111 612h-185zM692 713l127 721h174l133 -564l340 564h164l-127 -721h-127l92 532l-325 -532h-99l-133 540l-96 -540h-123z" />
<glyph unicode="&#x25fc;" horiz-adv-x="1013" d="M0 0v1014h1014v-1014h-1014z" />
</font>
</defs>
</svg>
